# xmcd
#
# Track frame offsets:
#   150
#   20782
#   38833
#   54498
#   69405
#   85949
#   101741
#   116943
#   130570
#   147930
#   164005
#
# Disc length: 2363 seconds
#
# Revision: 0
# Processed by: cddbd v1.5.1PL0 Copyright (c) Steve Scherf et al.
# Submitted via: Media_Universe 3.0
#
DISCID=9c09390b
DTITLE=Tracy Byrd - It's About Time
DYEAR=1900
DGENRE=Country
TTITLE0=Put Your Hand In Mine
TTITLE1=Its About Time
TTITLE2=Cant Have One Without The Other
TTITLE3=Take Me With You When You Go
TTITLE4=Every Time I Do
TTITLE5=Love You Aint Seen The Last Of Me
TTITLE6=Aint It Just Like A Woman
TTITLE7=Undo The Right
TTITLE8=Proud Of Me
TTITLE9=A Little Love
TTITLE10=Something To Brag About
EXTD=
EXTT0=
EXTT1=
EXTT2=
EXTT3=
EXTT4=
EXTT5=
EXTT6=
EXTT7=
EXTT8=
EXTT9=
EXTT10=
PLAYORDER=
